<?xml version="1.0" encoding="UTF-8"?>
<svg id="Capa_1" data-name="Capa 1" xmlns="http://www.w3.org/2000/svg" viewBox="0 0 100 100">
  <defs>
    <style>
      .cls-1 {
        fill: #fff;
      }

      .cls-2 {
        fill: none;
      }

      .cls-3 {
        fill: #0e2a52;
      }
    </style>
  </defs>
  <rect class="cls-3" x="2.11" y="1.97" width="96.05" height="96.05" rx="25.27" ry="25.27"/>
  <g>
    <polygon class="cls-2" points="64.56 77.03 73.44 77.03 53.54 48.2 48.65 53.91 64.56 77.03"/>
    <polygon class="cls-2" points="36.26 23.16 27.47 23.16 46.35 50.57 51.26 44.89 36.26 23.16"/>
    <polygon class="cls-1" points="78.35 19.21 73.44 19.21 53.68 42.08 55.95 45.38 78.35 19.21"/>
    <polygon class="cls-1" points="20.37 80.64 25.76 80.64 46.15 56.83 43.85 53.46 20.37 80.64"/>
    <polygon class="cls-1" points="27.47 23.16 36.26 23.16 51.26 44.89 53.68 42.08 37.94 19.21 20.37 19.21 43.85 53.46 46.35 50.57 27.47 23.16"/>
    <polygon class="cls-1" points="80.22 80.64 55.95 45.38 53.54 48.2 73.44 77.03 64.56 77.03 48.65 53.91 46.15 56.83 62.48 80.64 80.22 80.64"/>
    <polygon class="cls-1" points="46.35 50.57 43.85 53.46 46.15 56.83 48.65 53.91 46.35 50.57"/>
    <polygon class="cls-1" points="53.54 48.2 55.95 45.38 53.68 42.08 51.26 44.89 53.54 48.2"/>
  </g>
</svg>