<?xml version="1.0" encoding="UTF-8"?>
<svg id="Capa_1" data-name="Capa 1" xmlns="http://www.w3.org/2000/svg" viewBox="0 0 100 100">
  <defs>
    <style>
      .cls-1 {
        fill: #fff;
      }

      .cls-2 {
        fill: #0e2a52;
      }
    </style>
  </defs>
  <rect class="cls-2" x="1.65" y="1.97" width="96.05" height="96.05" rx="25.27" ry="25.27"/>
  <g>
    <path class="cls-1" d="m51.96,45.21c.32-.44.65-.87,1.03-1.26,2.98-3.03,6.58-4.67,10.83-4.86,2.36-.1,4.66.23,6.82,1.22,1.69.78,3.21,1.81,4.53,3.13.39.39.72.82,1,1.29,1.36,2.2,2.39,4.53,2.73,7.11.06.42.09.85.09,1.28,0,8.13,0,16.26,0,24.39q0,.4-.4.4c-3.59,0-7.19,0-10.78,0q-.38,0-.38-.39c0-5.89.01-11.77.02-17.66,0-1.05.01-2.1,0-3.16-.02-1.05-.21-2.08-.63-3.04-.97-2.25-2.76-3.43-5.13-3.82-1.29-.21-2.57-.1-3.83.24-2.24.6-3.73,2.02-4.61,4.13-.47,1.13-.71,2.31-.71,3.54,0,6.58,0,13.16,0,19.74q0,.42-.41.42c-3.57,0-7.15,0-10.72,0-.3,0-.38-.08-.38-.38,0-12.47,0-24.93,0-37.4,0-.31.09-.37.38-.37,3.37.01,6.75,0,10.12,0,.27,0,.35.06.35.34-.01,1.58,0,3.16,0,4.73,0,.11,0,.22,0,.33.02.01.05.02.07.03Z"/>
    <path class="cls-1" d="m34.47,58.87c0,6.21,0,12.43,0,18.64,0,.46.05.41-.42.41-3.66,0-7.32,0-10.99,0q-.38,0-.38-.39c0-12.46,0-24.91,0-37.37,0-.28.04-.39.37-.39,3.69.01,7.38.01,11.08,0,.29,0,.36.08.36.37,0,6.24,0,12.49,0,18.73Z"/>
    <path class="cls-1" d="m28.6,20.59c3.76,0,6.76,3.04,6.75,6.84,0,3.69-3.07,6.7-6.81,6.69-3.71-.01-6.74-3.07-6.72-6.78.02-3.76,3.04-6.75,6.78-6.75Z"/>
  </g>
</svg>