<?xml version="1.0" encoding="UTF-8"?>
<svg id="Capa_1" data-name="Capa 1" xmlns="http://www.w3.org/2000/svg" viewBox="0 0 100 100">
  <defs>
    <style>
      .cls-1 {
        fill: #fff;
      }

      .cls-2 {
        fill: #0e2a52;
      }
    </style>
  </defs>
  <rect class="cls-2" x="2.43" y="1.59" width="96.05" height="96.05" rx="25.27" ry="25.27"/>
  <path class="cls-1" d="m50.35,71.77c0,.09-.08.16-.17.15-7.17-.45-14.35-.74-21.49-1.41-5.95-.56-8.32-3.19-8.93-9.12-.82-7.9-.78-15.8-.03-23.69.57-6,3.16-8.68,9.18-9.33,9.88-1.07,19.79-1.3,29.71-.86,4.95.22,9.91.53,14.81,1.18,4.51.61,6.66,2.92,7.35,7.43,1.32,8.64,1.3,17.33.12,25.98-.76,5.56-2.96,7.84-8.52,8.37-6.53.62-13.11.78-19.67,1.13-.73.04-1.46.01-2.18,0-.09,0-.16.07-.16.15h0Zm-6.08-31.26v18.07c0,.13.14.21.25.14,5.24-3.06,10.29-6,15.61-9.1.11-.06.11-.22,0-.29-5.3-3.04-10.33-5.94-15.61-8.97-.11-.06-.25.02-.25.14Z"/>
</svg>