<?xml version="1.0" encoding="UTF-8"?>
<svg id="Capa_1" data-name="Capa 1" xmlns="http://www.w3.org/2000/svg" viewBox="0 0 100 100">
  <defs>
    <style>
      .cls-1 {
        fill: #fff;
      }

      .cls-2 {
        fill: #0e2a52;
      }
    </style>
  </defs>
  <rect class="cls-2" x="2.57" y="1.97" width="96.05" height="96.05" rx="25.27" ry="25.27"/>
  <path class="cls-1" d="m54.9,43.67h11.19c.1,0,.18.09.16.19-.64,4.06-1.25,7.93-1.88,11.92-.01.08-.08.14-.16.14h-9.29c-.09,0-.16.07-.16.16v29.69c0,.09-.07.16-.16.16h-12.8c-.09,0-.16-.07-.16-.16v-29.62c0-.09-.07-.16-.16-.16h-10.64c-.09,0-.16-.07-.16-.16v-11.98c0-.09.07-.16.16-.16h10.57c.09,0,.16-.07.16-.17,0-2.28.02-4.37,0-6.47-.05-3.22.03-6.41,1.2-9.49,2.29-6.02,7.32-9.34,13.73-9,3,.16,5.99.28,8.99.4.68.03,1.25.05,1.24.98-.03,2.94,0,5.89,0,9.09,0,.09-.07.17-.17.17-1.6,0-3.11-.07-4.61.02-1.25.08-2.54.19-3.71.59-1.98.67-3.37,2.11-3.46,4.28-.13,3.04-.04,6.1-.03,9.42,0,.09.07.16.16.16Z"/>
</svg>