<?xml version="1.0" encoding="UTF-8"?>
<svg id="Capa_1" data-name="Capa 1" xmlns="http://www.w3.org/2000/svg" viewBox="0 0 100 100">
  <defs>
    <style>
      .cls-1 {
        fill: #fff;
      }

      .cls-2 {
        fill: #0e2a52;
      }
    </style>
  </defs>
  <rect class="cls-2" x="2.11" y="1.59" width="96.05" height="96.05" rx="25.27" ry="25.27"/>
  <path class="cls-1" d="m47.01,53.4c0,.09-.08.17-.17.17-1.58-.01-3.03-.23-4.39.04-4.66.93-7.7,5.33-7.02,9.94.68,4.6,4.64,7.81,9.37,7.59,4.65-.21,8.4-4,8.45-8.77.08-7.11.02-14.22.02-21.33,0-6.32,0-12.64,0-18.96,0-.53,0-1.06,0-1.71,0-.09.07-.17.16-.17h10.17c.08,0,.15.06.16.14,1.16,8.45,5.29,14,14.55,14.62.09,0,.15.08.15.16v9.99c0,.09-.07.16-.15.16-5.2.41-9.73-1.17-14.08-4.51-.11-.08-.26,0-.26.13,0,.7,0,1.18,0,1.65,0,6.48.08,12.96-.02,19.43-.13,8.11-3.81,14.21-11.11,17.71-7.4,3.55-14.65,2.71-21.03-2.47-6.31-5.13-8.5-12-6.47-19.83,2.08-8.02,7.54-12.82,15.69-14.39,1.58-.3,3.24-.2,4.86-.17.37,0,1.05.51,1.06.8.07,3.25.05,6.49.05,9.77Z"/>
</svg>