<?xml version="1.0" encoding="UTF-8"?>
<svg id="Capa_1" data-name="Capa 1" xmlns="http://www.w3.org/2000/svg" viewBox="0 0 100 100">
  <defs>
    <style>
      .cls-1 {
        fill: #fff;
      }

      .cls-2 {
        fill: #0e2a52;
      }
    </style>
  </defs>
  <rect class="cls-2" x="1.79" y="1.59" width="96.05" height="96.05" rx="25.27" ry="25.27"/>
  <g>
    <path class="cls-1" d="m19.25,49.47c0-4.69,0-9.37,0-14.06,0-9.01,7.33-16.41,16.35-16.45,9.42-.04,18.85-.03,28.27,0,9.15.02,16.5,7.25,16.58,16.41.08,9.32.08,18.64-.02,27.96-.1,9.63-7.27,16.67-16.92,16.71-9.11.04-18.22.04-27.32,0-9.86-.04-16.96-7.25-16.95-17.14,0-4.48,0-8.95,0-13.43Zm30.49,25.19c4.58,0,9.16.02,13.74,0,6.76-.04,11.59-4.94,11.59-11.72,0-8.9,0-17.79,0-26.69,0-7.1-4.79-11.94-11.85-11.94-8.85-.01-17.7,0-26.54,0-6.65.01-12.05,5.4-12.07,12.05-.02,8.79-.02,17.58,0,26.36.01,7.11,4.8,11.9,11.88,11.93,4.42.02,8.84,0,13.26,0Z"/>
    <path class="cls-1" d="m49.87,66.16c-9.2.02-16.64-7.43-16.64-16.68,0-9.1,7.46-16.64,16.53-16.67,9.12-.04,16.84,7.53,16.89,16.56.06,9.19-7.51,16.77-16.78,16.79Zm10.9-16.6c.03-6-4.9-10.95-10.92-10.95-5.95,0-10.91,4.88-10.95,10.77-.04,6.14,4.83,11.09,10.92,11.12,6,.03,10.91-4.88,10.94-10.94Z"/>
    <circle class="cls-1" cx="66.25" cy="33.15" r="3.54"/>
  </g>
</svg>